# xmcd
#
# Track frame offsets: 
#        150
#        20827
#        39534
#        58274
#        83235
#        109335
#        121452
#        155531
#        188763
#        215829
#
# Disc length: 3287 seconds
#
# Revision: 0
# Processed by: cddbd v1.5.2PL0 Copyright (c) Steve Scherf et al.
# Submitted via: ExactAudioCopy v0.99pb5
#
DISCID=930cd50a
DTITLE=Various Artist - Projekt: Afar
DYEAR=2010
DGENRE=Darkwave
TTITLE0=WEEP - When I'm Wrong
TTITLE1=Makaras Pen - Failing Deeper
TTITLE2=Black Tape for a Blue Girl - Inch Worm
TTITLE3=The Twilight Garden - The Ice King
TTITLE4=Lovesliescrushing - Wallflower (Original Version)
TTITLE5=Nicki Jaine - A Pigeon Named Crow
TTITLE6=SoulWhirlingSomewhere - The Last Time I Left
TTITLE7=Steve Roach - The View From Here (Exerpt)
TTITLE8=Mark Seelig - Call of the Divine (Exerpt)
TTITLE9=Erik Wøllo - First Arrival
EXTD=
EXTT0=
EXTT1=
EXTT2=
EXTT3=
EXTT4=
EXTT5=
EXTT6=
EXTT7=
EXTT8=
EXTT9=
PLAYORDER=
